<svg width="88" height="38" viewBox="0 0 88 38" fill="none" xmlns="http://www.w3.org/2000/svg">
<path d="M87.25 19C87.25 21.5405 86.0723 23.9805 83.902 26.2217C81.7305 28.4642 78.5762 30.495 74.6591 32.2059C66.8255 35.6275 55.9861 37.75 44 37.75C32.0139 37.75 21.1745 35.6275 13.3409 32.2059C9.42377 30.495 6.26951 28.4642 4.09804 26.2217C1.92773 23.9805 0.75 21.5405 0.75 19C0.75 16.4595 1.92773 14.0195 4.09804 11.7783C6.26951 9.53585 9.42377 7.50501 13.3409 5.79407C21.1745 2.37252 32.0139 0.25 44 0.25C55.9861 0.25 66.8255 2.37252 74.6591 5.79407C78.5762 7.50501 81.7305 9.53585 83.902 11.7783C86.0723 14.0195 87.25 16.4595 87.25 19Z" stroke="#0DB760" stroke-width="0.5"/>
</svg>
