<svg width="57" height="56" viewBox="0 0 57 56" fill="none" xmlns="http://www.w3.org/2000/svg">
<path d="M0.5 12C0.5 5.37258 5.87258 0 12.5 0H44.5C51.1274 0 56.5 5.37258 56.5 12V44C56.5 50.6274 51.1274 56 44.5 56H12.5C5.87258 56 0.5 50.6274 0.5 44V12Z" fill="#0DB760"/>
<path d="M17.125 21.875C17.125 31.5397 24.9603 39.375 34.625 39.375H37.25C37.9462 39.375 38.6139 39.0984 39.1062 38.6062C39.5984 38.1139 39.875 37.4462 39.875 36.75V35.1493C39.875 34.5473 39.4655 34.0223 38.881 33.8765L33.7208 32.5862C33.2075 32.4578 32.6685 32.6503 32.3523 33.0727L31.2207 34.5812C30.8917 35.0198 30.3235 35.2135 29.809 35.0245C27.899 34.3223 26.1645 33.2134 24.7256 31.7744C23.2866 30.3355 22.1777 28.601 21.4755 26.691C21.2865 26.1765 21.4802 25.6083 21.9188 25.2793L23.4273 24.1477C23.8508 23.8315 24.0422 23.2913 23.9138 22.7792L22.6235 17.619C22.5525 17.3351 22.3887 17.0832 22.1581 16.9031C21.9274 16.723 21.6433 16.6251 21.3507 16.625H19.75C19.0538 16.625 18.3861 16.9016 17.8938 17.3938C17.4016 17.8861 17.125 18.5538 17.125 19.25V21.875Z" stroke="white" stroke-width="1.5" stroke-linecap="round" stroke-linejoin="round"/>
</svg>
