<svg width="57" height="56" viewBox="0 0 57 56" fill="none" xmlns="http://www.w3.org/2000/svg">
<path d="M0.5 12C0.5 5.37258 5.87258 0 12.5 0H44.5C51.1274 0 56.5 5.37258 56.5 12V44C56.5 50.6274 51.1274 56 44.5 56H12.5C5.87258 56 0.5 50.6274 0.5 44V12Z" fill="#0DB760"/>
<path d="M32 26.25C32 27.1783 31.6313 28.0685 30.9749 28.7249C30.3185 29.3813 29.4283 29.75 28.5 29.75C27.5717 29.75 26.6815 29.3813 26.0251 28.7249C25.3687 28.0685 25 27.1783 25 26.25C25 25.3217 25.3687 24.4315 26.0251 23.7751C26.6815 23.1187 27.5717 22.75 28.5 22.75C29.4283 22.75 30.3185 23.1187 30.9749 23.7751C31.6313 24.4315 32 25.3217 32 26.25V26.25Z" stroke="white" stroke-width="1.5" stroke-linecap="round" stroke-linejoin="round"/>
<path d="M37.25 26.25C37.25 34.5823 28.5 39.375 28.5 39.375C28.5 39.375 19.75 34.5823 19.75 26.25C19.75 23.9294 20.6719 21.7038 22.3128 20.0628C23.9538 18.4219 26.1794 17.5 28.5 17.5C30.8206 17.5 33.0462 18.4219 34.6872 20.0628C36.3281 21.7038 37.25 23.9294 37.25 26.25V26.25Z" stroke="white" stroke-width="1.5" stroke-linecap="round" stroke-linejoin="round"/>
</svg>
