<svg width="217" height="56" viewBox="0 0 217 56" fill="none" xmlns="http://www.w3.org/2000/svg">
<path d="M101.86 33.5093H92.1413L90.5332 37.1668H85.3942L94.169 17.9443H99.8674L108.642 37.1668H103.468L101.86 33.5093ZM100.532 30.4293L97.0007 22.3993L93.4698 30.4293H100.532Z" fill="#0DB760"/>
<path d="M118.809 21.6843C120.254 21.6843 121.524 21.9135 122.62 22.3718C123.715 22.8118 124.577 23.3893 125.207 24.1043V21.9318H130.136V37.2768C130.136 38.6885 129.775 39.9443 129.052 41.0443C128.33 42.1627 127.246 43.0427 125.801 43.6843C124.356 44.3443 122.608 44.6743 120.557 44.6743C117.807 44.6743 115.546 44.1702 113.775 43.1618C112.027 42.1535 111.036 40.7785 110.803 39.0368H115.663C115.919 39.7335 116.467 40.2835 117.306 40.6868C118.168 41.1085 119.205 41.3193 120.417 41.3193C121.839 41.3193 122.993 40.9802 123.878 40.3018C124.764 39.6418 125.207 38.6335 125.207 37.2768V34.9118C124.577 35.6268 123.703 36.2227 122.585 36.6993C121.489 37.176 120.231 37.4143 118.809 37.4143C117.178 37.4143 115.686 37.0843 114.334 36.4243C112.983 35.7643 111.91 34.8385 111.118 33.6468C110.349 32.4368 109.964 31.0527 109.964 29.4943C109.964 27.9543 110.349 26.5885 111.118 25.3968C111.91 24.2052 112.971 23.2885 114.299 22.6468C115.651 22.0052 117.154 21.6843 118.809 21.6843ZM125.207 29.5493C125.207 28.6143 124.974 27.8168 124.507 27.1568C124.041 26.4785 123.412 25.9652 122.62 25.6168C121.827 25.2502 120.977 25.0668 120.068 25.0668C119.159 25.0668 118.32 25.241 117.551 25.5893C116.781 25.9377 116.152 26.451 115.663 27.1293C115.197 27.7893 114.964 28.5777 114.964 29.4943C114.964 30.411 115.197 31.2177 115.663 31.9143C116.152 32.5927 116.781 33.1152 117.551 33.4818C118.343 33.8485 119.182 34.0318 120.068 34.0318C120.977 34.0318 121.827 33.8577 122.62 33.5093C123.412 33.1427 124.041 32.6293 124.507 31.9693C124.974 31.291 125.207 30.4843 125.207 29.5493Z" fill="#0DB760"/>
<path d="M152.221 29.2193C152.221 29.7693 152.174 30.2643 152.081 30.7043H137.923C138.039 31.8043 138.529 32.666 139.391 33.2893C140.253 33.9127 141.314 34.2243 142.572 34.2243C144.39 34.2243 145.684 33.6102 146.453 32.3818H151.732C151.172 33.8485 150.1 35.0585 148.515 36.0118C146.93 36.9468 144.984 37.4143 142.677 37.4143C140.813 37.4143 139.135 37.0935 137.643 36.4518C136.175 35.7918 135.021 34.866 134.182 33.6743C133.366 32.4827 132.958 31.1077 132.958 29.5493C132.958 27.9727 133.366 26.5885 134.182 25.3968C134.998 24.2052 136.14 23.2885 137.608 22.6468C139.076 22.0052 140.766 21.6843 142.677 21.6843C144.518 21.6843 146.161 21.996 147.606 22.6193C149.075 23.2427 150.205 24.1318 150.997 25.2868C151.813 26.4235 152.221 27.7343 152.221 29.2193ZM147.152 28.1193C147.129 27.1293 146.674 26.341 145.788 25.7543C144.903 25.1493 143.819 24.8468 142.537 24.8468C141.325 24.8468 140.3 25.1402 139.461 25.7268C138.645 26.2952 138.144 27.0927 137.958 28.1193H147.152Z" fill="#0DB760"/>
<path d="M165.827 21.7118C168.134 21.7118 169.999 22.2893 171.42 23.4443C172.842 24.581 173.553 26.176 173.553 28.2293V37.1668H168.658V28.7518C168.658 27.5418 168.274 26.616 167.505 25.9743C166.736 25.3143 165.687 24.9843 164.358 24.9843C163.007 24.9843 161.935 25.3143 161.142 25.9743C160.373 26.616 159.989 27.5418 159.989 28.7518V37.1668H155.094V21.9318H159.989V23.8293C160.641 23.1693 161.468 22.656 162.471 22.2893C163.496 21.9043 164.615 21.7118 165.827 21.7118Z" fill="#0DB760"/>
<path d="M176.249 29.5493C176.249 27.9727 176.657 26.5977 177.473 25.4243C178.289 24.2327 179.419 23.316 180.864 22.6743C182.309 22.0143 183.964 21.6843 185.828 21.6843C188.229 21.6843 190.21 22.161 191.771 23.1143C193.356 24.0493 194.417 25.3693 194.953 27.0743H189.674C189.394 26.4143 188.916 25.901 188.24 25.5343C187.588 25.1493 186.772 24.9568 185.793 24.9568C184.395 24.9568 183.288 25.3602 182.472 26.1668C181.656 26.9552 181.248 28.0827 181.248 29.5493C181.248 30.9977 181.656 32.1252 182.472 32.9318C183.288 33.7202 184.395 34.1143 185.793 34.1143C187.774 34.1143 189.068 33.4177 189.674 32.0243H194.953C194.417 33.6743 193.356 34.9852 191.771 35.9568C190.186 36.9285 188.205 37.4143 185.828 37.4143C183.964 37.4143 182.309 37.0935 180.864 36.4518C179.419 35.7918 178.289 34.8752 177.473 33.7018C176.657 32.5102 176.249 31.126 176.249 29.5493Z" fill="#0DB760"/>
<path d="M216.367 21.9318L204.376 44.3718H199.167L203.362 36.7818L195.602 21.9318H201.09L206.089 32.5743L211.158 21.9318H216.367Z" fill="#0DB760"/>
<path d="M55.8726 0.5H13.7341C6.05703 0.5 0 5.26462 0 11.3036V44.4509C0 50.4898 6.05703 55.5 13.7341 55.5H55.8726C63.5496 55.5 69.9188 50.4898 69.9188 44.4509V11.3036C69.9188 5.26462 63.5496 0.5 55.8726 0.5ZM47.4449 41.7471C47.4449 43.6472 45.9046 45.1875 44.0045 45.1875H39.3293C32.6949 45.1875 28.0924 42.2804 28.0924 35.8571V28.8449C28.0924 27.2935 26.8346 26.0357 25.2831 26.0357V26.0357C23.7316 26.0357 22.4739 24.778 22.4739 23.2265V22.7925C22.4739 21.2506 23.5817 19.9655 25.0151 19.3975C28.2719 18.1069 30.1493 15.874 31.092 13.5156C31.7826 11.7879 33.27 10.3214 35.1306 10.3214V10.3214C37.1047 10.3214 38.7051 11.9218 38.7051 13.8959V15.1029C38.7051 17.344 40.5218 19.1607 42.7628 19.1607H43.3831C45.2816 19.1607 46.8206 20.6997 46.8206 22.5982V22.5982C46.8206 24.4967 45.2816 26.0357 43.3831 26.0357H42.7486C40.5108 26.0357 38.6924 27.8414 38.6766 30.0791L38.6442 34.6921C38.6442 37.377 40.361 38.3051 43.1109 38.3051L44.0103 38.3067C45.9081 38.3099 47.4449 39.8493 47.4449 41.7471V41.7471Z" fill="#0DB760"/>
</svg>
