<svg width="57" height="56" viewBox="0 0 57 56" fill="none" xmlns="http://www.w3.org/2000/svg">
<path d="M0.5 12C0.5 5.37258 5.87258 0 12.5 0H44.5C51.1274 0 56.5 5.37258 56.5 12V44C56.5 50.6274 51.1274 56 44.5 56H12.5C5.87258 56 0.5 50.6274 0.5 44V12Z" fill="#0DB760"/>
<path d="M39.875 21.875V34.125C39.875 34.8212 39.5984 35.4889 39.1062 35.9812C38.6139 36.4734 37.9462 36.75 37.25 36.75H19.75C19.0538 36.75 18.3861 36.4734 17.8938 35.9812C17.4016 35.4889 17.125 34.8212 17.125 34.125V21.875M39.875 21.875C39.875 21.1788 39.5984 20.5111 39.1062 20.0188C38.6139 19.5266 37.9462 19.25 37.25 19.25H19.75C19.0538 19.25 18.3861 19.5266 17.8938 20.0188C17.4016 20.5111 17.125 21.1788 17.125 21.875M39.875 21.875V22.1585C39.875 22.6067 39.7604 23.0474 39.5418 23.4387C39.3233 23.83 39.0083 24.1588 38.6267 24.3938L29.8767 29.778C29.4627 30.033 28.9861 30.168 28.5 30.168C28.0139 30.168 27.5373 30.033 27.1233 29.778L18.3733 24.395C17.9917 24.16 17.6767 23.8311 17.4582 23.4398C17.2396 23.0486 17.125 22.6078 17.125 22.1597V21.875" stroke="white" stroke-width="1.5" stroke-linecap="round" stroke-linejoin="round"/>
</svg>
